<svg width="80mm" height="80mm" viewBox="0 0 80000 80000"><g xmlns="http://www.w3.org/2000/svg" fill="#303f9f" fill-rule="nonzero" stroke="none" stroke-width="0" stroke-linecap="butt" stroke-linejoin="miter" stroke-miterlimit="10" stroke-dasharray="" stroke-dashoffset="0" font-family="none" font-weight="none" font-size="none" text-anchor="none" style="mix-blend-mode: normal"><path d="M20000,40400c-220.9139,0 -400,-179.0861 -400,-400v0c0,-220.9139 179.0861,-400 400,-400h40000c220.9139,0 400,179.0861 400,400v0c0,220.9139 -179.0861,400 -400,400z"/><path d="M39600,40000c0,-220.9139 179.0861,-400 400,-400v0c220.9139,0 400,179.0861 400,400v10000c0,220.9139 -179.0861,400 -400,400v0c-220.9139,0 -400,-179.0861 -400,-400z"/><path d="M30267.58589,50297.31766c-164.20401,147.78361 -417.11994,134.47224 -564.90355,-29.73177v0c-147.78361,-164.20401 -134.47224,-417.11994 29.73177,-564.90355l10000,-9000c164.20401,-147.78361 417.11994,-134.47224 564.90355,29.73177v0c147.78361,164.20401 134.47224,417.11994 -29.73177,564.90355z"/><path d="M39732.41411,41297.31766c-164.20401,-147.78361 -177.51537,-400.69954 -29.73177,-564.90355v0c147.78361,-164.20401 400.69954,-177.51537 564.90355,-29.73177l10000,9000c164.20401,147.78361 177.51537,400.69954 29.73177,564.90355v0c-147.78361,164.20401 -400.69954,177.51537 -564.90355,29.73177z"/><path d="M29628.60932,49851.44373c82.04536,-205.11341 314.83354,-304.87977 519.94695,-222.83441v0c205.11341,82.04536 304.87977,314.83354 222.83441,519.94695l-4000,10000c-82.04536,205.11341 -314.83354,304.87977 -519.94695,222.83441v0c-205.11341,-82.04536 -304.87977,-314.83354 -222.83441,-519.94695z"/><path d="M39600,50000c0,-220.9139 179.0861,-400 400,-400v0c220.9139,0 400,179.0861 400,400v10000c0,220.9139 -179.0861,400 -400,400v0c-220.9139,0 -400,-179.0861 -400,-400z"/><path d="M49628.60932,50148.55627c-82.04536,-205.11341 17.721,-437.90158 222.83441,-519.94695v0c205.11341,-82.04536 437.90158,17.721 519.94695,222.83441l4000,10000c82.04536,205.11341 -17.721,437.90158 -222.83441,519.94695v0c-205.11341,82.04536 -437.90158,-17.721 -519.94695,-222.83441z"/></g></svg>