<?xml version="1.0" encoding="UTF-8" standalone="no"?>
<svg
   xmlns:dc="http://purl.org/dc/elements/1.1/"
   xmlns:cc="http://creativecommons.org/ns#"
   xmlns:rdf="http://www.w3.org/1999/02/22-rdf-syntax-ns#"
   xmlns:svg="http://www.w3.org/2000/svg"
   xmlns="http://www.w3.org/2000/svg"
   xmlns:sodipodi="http://sodipodi.sourceforge.net/DTD/sodipodi-0.dtd"
   xmlns:inkscape="http://www.inkscape.org/namespaces/inkscape"
   width="135mm"
   height="85mm"
   viewBox="0 0 135000 85000"
   version="1.1"
   id="svg188"
   sodipodi:docname="F_400_64.svg"
   inkscape:version="0.92.2 5c3e80d, 2017-08-06">
  <metadata
     id="metadata192">
    <rdf:RDF>
      <cc:Work
         rdf:about="">
        <dc:format>image/svg+xml</dc:format>
        <dc:type
           rdf:resource="http://purl.org/dc/dcmitype/StillImage" />
        <dc:title></dc:title>
      </cc:Work>
    </rdf:RDF>
  </metadata>
  <sodipodi:namedview
     pagecolor="#ffffff"
     bordercolor="#666666"
     borderopacity="1"
     objecttolerance="10"
     gridtolerance="10"
     guidetolerance="10"
     inkscape:pageopacity="0"
     inkscape:pageshadow="2"
     inkscape:window-width="1016"
     inkscape:window-height="707"
     id="namedview190"
     showgrid="false"
     inkscape:zoom="1.5"
     inkscape:cx="255.11811"
     inkscape:cy="160.62992"
     inkscape:window-x="0"
     inkscape:window-y="0"
     inkscape:window-maximized="0"
     inkscape:current-layer="g186" />
  <defs
     id="defs62">
    <radialGradient
       cx="104000"
       cy="30000"
       r="2020"
       gradientUnits="userSpaceOnUse"
       id="color-1">
      <stop
         offset="1"
         stop-color="#303f9f"
         id="stop2" />
      <stop
         offset="1"
         stop-color="#303f9f"
         id="stop4" />
    </radialGradient>
    <radialGradient
       cx="96000"
       cy="30000"
       r="2020"
       gradientUnits="userSpaceOnUse"
       id="color-2">
      <stop
         offset="1"
         stop-color="#303f9f"
         id="stop7" />
      <stop
         offset="1"
         stop-color="#303f9f"
         id="stop9" />
    </radialGradient>
    <radialGradient
       cx="74000"
       cy="30000"
       r="2020"
       gradientUnits="userSpaceOnUse"
       id="color-3">
      <stop
         offset="1"
         stop-color="#303f9f"
         id="stop12" />
      <stop
         offset="1"
         stop-color="#303f9f"
         id="stop14" />
    </radialGradient>
    <radialGradient
       cx="66000"
       cy="30000"
       r="2020"
       gradientUnits="userSpaceOnUse"
       id="color-4">
      <stop
         offset="1"
         stop-color="#303f9f"
         id="stop17" />
      <stop
         offset="1"
         stop-color="#303f9f"
         id="stop19" />
    </radialGradient>
    <radialGradient
       cx="44000"
       cy="30000"
       r="2020"
       gradientUnits="userSpaceOnUse"
       id="color-5">
      <stop
         offset="1"
         stop-color="#303f9f"
         id="stop22" />
      <stop
         offset="1"
         stop-color="#303f9f"
         id="stop24" />
    </radialGradient>
    <radialGradient
       cx="36000"
       cy="30000"
       r="2020"
       gradientUnits="userSpaceOnUse"
       id="color-6">
      <stop
         offset="1"
         stop-color="#303f9f"
         id="stop27" />
      <stop
         offset="1"
         stop-color="#303f9f"
         id="stop29" />
    </radialGradient>
    <radialGradient
       cx="40000"
       cy="20000"
       r="2020"
       gradientUnits="userSpaceOnUse"
       id="color-7">
      <stop
         offset="1"
         stop-color="#303f9f"
         id="stop32" />
      <stop
         offset="1"
         stop-color="#303f9f"
         id="stop34" />
    </radialGradient>
    <radialGradient
       cx="70000"
       cy="20000"
       r="2020"
       gradientUnits="userSpaceOnUse"
       id="color-8">
      <stop
         offset="1"
         stop-color="#303f9f"
         id="stop37" />
      <stop
         offset="1"
         stop-color="#303f9f"
         id="stop39" />
    </radialGradient>
    <radialGradient
       cx="100000"
       cy="20000"
       r="2020"
       gradientUnits="userSpaceOnUse"
       id="color-9">
      <stop
         offset="1"
         stop-color="#303f9f"
         id="stop42" />
      <stop
         offset="1"
         stop-color="#303f9f"
         id="stop44" />
    </radialGradient>
    <radialGradient
       cx="100000"
       cy="65000"
       r="2020"
       gradientUnits="userSpaceOnUse"
       id="color-10">
      <stop
         offset="1"
         stop-color="#303f9f"
         id="stop47" />
      <stop
         offset="1"
         stop-color="#303f9f"
         id="stop49" />
    </radialGradient>
    <radialGradient
       cx="70000"
       cy="65000"
       r="2020"
       gradientUnits="userSpaceOnUse"
       id="color-11">
      <stop
         offset="1"
         stop-color="#303f9f"
         id="stop52" />
      <stop
         offset="1"
         stop-color="#303f9f"
         id="stop54" />
    </radialGradient>
    <radialGradient
       cx="40000"
       cy="65000"
       r="2020"
       gradientUnits="userSpaceOnUse"
       id="color-12">
      <stop
         offset="1"
         stop-color="#303f9f"
         id="stop57" />
      <stop
         offset="1"
         stop-color="#303f9f"
         id="stop59" />
    </radialGradient>
  </defs>
  <g
     fill="none"
     fill-rule="nonzero"
     stroke="none"
     stroke-width="none"
     stroke-linecap="butt"
     stroke-linejoin="miter"
     stroke-miterlimit="10"
     stroke-dasharray=""
     stroke-dashoffset="0"
     font-family="none"
     font-weight="none"
     font-size="none"
     text-anchor="none"
     style="mix-blend-mode: normal"
     id="g186">
    <path
       style="fill:#303f9f;stroke-width:0.00377953"
       d="M 373.41406 136.0625 C 370.46216 136.06454 368.06836 138.45778 368.06836 141.41016 C 368.06836 144.36253 370.46216 146.75772 373.41406 146.75977 L 382.71484 146.75977 C 383.99858 146.75977 385.03906 147.80025 385.03906 149.08398 C 385.03906 150.36772 383.99858 151.4082 382.71484 151.4082 L 373.41406 151.4082 C 370.46216 151.41024 368.06836 153.80348 368.06836 156.75586 C 368.06836 159.70824 370.46216 162.10147 373.41406 162.10352 L 382.71484 162.10352 C 383.99858 162.10352 385.03906 163.144 385.03906 164.42773 C 385.03906 165.71147 383.99858 166.75195 382.71484 166.75195 L 373.41406 166.75195 C 370.46216 166.75399 368.06836 169.14919 368.06836 172.10156 C 368.06836 175.05394 370.46216 177.44718 373.41406 177.44922 L 382.71484 177.44922 C 383.99858 177.44922 385.03906 178.4897 385.03906 179.77344 C 385.03906 181.05717 383.99858 182.09766 382.71484 182.09766 L 373.41406 182.09766 C 370.46216 182.0997 368.06836 184.49294 368.06836 187.44531 C 368.06836 190.39769 370.46216 192.79093 373.41406 192.79297 L 382.71484 192.79297 C 383.99858 192.79297 385.03906 193.83345 385.03906 195.11719 C 385.03906 196.40092 383.99858 197.44336 382.71484 197.44336 L 376.55469 197.44336 L 376.55469 200.4668 L 382.71875 200.4668 C 385.67065 200.46476 388.0625 198.06956 388.0625 195.11719 C 388.0625 192.16481 385.67065 189.77157 382.71875 189.76953 L 373.41797 189.76953 C 372.13423 189.76953 371.09375 188.72905 371.09375 187.44531 C 371.09375 186.16158 372.13423 185.12109 373.41797 185.12109 L 382.71875 185.12109 C 385.67065 185.11905 388.0625 182.72581 388.0625 179.77344 C 388.0625 176.82106 385.67065 174.42782 382.71875 174.42578 L 373.41797 174.42578 C 372.13423 174.42578 371.09375 173.3853 371.09375 172.10156 C 371.09375 170.81783 372.13423 169.77734 373.41797 169.77734 L 382.71875 169.77734 C 385.67065 169.7753 388.0625 167.38011 388.0625 164.42773 C 388.0625 161.47536 385.67065 159.08212 382.71875 159.08008 L 373.41797 159.08008 C 372.13423 159.08008 371.09375 158.0396 371.09375 156.75586 C 371.09375 155.47212 372.13423 154.43164 373.41797 154.43164 L 382.71875 154.43164 C 385.67065 154.4296 388.0625 152.03636 388.0625 149.08398 C 388.0625 146.13161 385.67065 143.73837 382.71875 143.73633 L 373.41797 143.73633 C 372.13423 143.73633 371.09375 142.69389 371.09375 141.41016 C 371.09375 140.12642 372.13423 139.08594 373.41797 139.08594 L 379.57812 139.08594 L 379.57812 136.0625 L 373.41406 136.0625 z "
       transform="scale(264.58333)"
       id="path70" />
    <path
       style="fill:#303f9f;stroke-width:0.00377953"
       d="M 260.02734 136.0625 C 257.07544 136.06454 254.68359 138.45778 254.68359 141.41016 C 254.68359 144.36253 257.07544 146.75772 260.02734 146.75977 L 269.33008 146.75977 C 270.61381 146.75977 271.6543 147.80025 271.6543 149.08398 C 271.6543 150.36772 270.61381 151.4082 269.33008 151.4082 L 260.02734 151.4082 C 257.07544 151.41024 254.68359 153.80348 254.68359 156.75586 C 254.68359 159.70824 257.07544 162.10147 260.02734 162.10352 L 269.33008 162.10352 C 270.61381 162.10352 271.6543 163.144 271.6543 164.42773 C 271.6543 165.71147 270.61381 166.75195 269.33008 166.75195 L 260.02734 166.75195 C 257.07544 166.75399 254.68359 169.14919 254.68359 172.10156 C 254.68359 175.05394 257.07544 177.44718 260.02734 177.44922 L 269.33008 177.44922 C 270.61381 177.44922 271.6543 178.4897 271.6543 179.77344 C 271.6543 181.05717 270.61381 182.09766 269.33008 182.09766 L 260.02734 182.09766 C 257.07544 182.0997 254.68359 184.49294 254.68359 187.44531 C 254.68359 190.39769 257.07544 192.79093 260.02734 192.79297 L 269.33008 192.79297 C 270.61381 192.79297 271.6543 193.83345 271.6543 195.11719 C 271.6543 196.40092 270.61381 197.44336 269.33008 197.44336 L 263.16797 197.44336 L 263.16797 200.4668 L 269.33203 200.4668 C 272.28393 200.46476 274.67773 198.06956 274.67773 195.11719 C 274.67773 192.16481 272.28393 189.77157 269.33203 189.76953 L 260.03125 189.76953 C 258.74751 189.76953 257.70703 188.72905 257.70703 187.44531 C 257.70703 186.16158 258.74751 185.12109 260.03125 185.12109 L 269.33203 185.12109 C 272.28393 185.11905 274.67773 182.72581 274.67773 179.77344 C 274.67773 176.82106 272.28393 174.42782 269.33203 174.42578 L 260.03125 174.42578 C 258.74751 174.42578 257.70703 173.3853 257.70703 172.10156 C 257.70703 170.81783 258.74751 169.77734 260.03125 169.77734 L 269.33203 169.77734 C 272.28393 169.7753 274.67773 167.38011 274.67773 164.42773 C 274.67773 161.47536 272.28393 159.08212 269.33203 159.08008 L 260.03125 159.08008 C 258.74751 159.08008 257.70703 158.0396 257.70703 156.75586 C 257.70703 155.47212 258.74751 154.43164 260.03125 154.43164 L 269.33203 154.43164 C 272.28393 154.4296 274.67773 152.03636 274.67773 149.08398 C 274.67773 146.13161 272.28393 143.73837 269.33203 143.73633 L 260.03125 143.73633 C 258.74751 143.73633 257.70703 142.69389 257.70703 141.41016 C 257.70703 140.12642 258.74751 139.08594 260.03125 139.08594 L 266.19141 139.08594 L 266.19141 136.0625 L 260.02734 136.0625 z "
       transform="scale(264.58333)"
       id="path72" />
    <path
       style="fill:#303f9f;stroke-width:0.00377953"
       d="M 146.64258 136.0625 C 143.69068 136.06454 141.29688 138.45778 141.29688 141.41016 C 141.29688 144.36253 143.69068 146.75772 146.64258 146.75977 L 155.94336 146.75977 C 157.2271 146.75977 158.26758 147.80025 158.26758 149.08398 C 158.26758 150.36772 157.2271 151.4082 155.94336 151.4082 L 146.64258 151.4082 C 143.69068 151.41024 141.29688 153.80348 141.29688 156.75586 C 141.29688 159.70824 143.69068 162.10147 146.64258 162.10352 L 155.94336 162.10352 C 157.2271 162.10352 158.26758 163.144 158.26758 164.42773 C 158.26758 165.71147 157.2271 166.75195 155.94336 166.75195 L 146.64258 166.75195 C 143.69068 166.75399 141.29688 169.14919 141.29688 172.10156 C 141.29688 175.05394 143.69068 177.44718 146.64258 177.44922 L 155.94336 177.44922 C 157.2271 177.44922 158.26758 178.4897 158.26758 179.77344 C 158.26758 181.05717 157.2271 182.09766 155.94336 182.09766 L 146.64258 182.09766 C 143.69068 182.0997 141.29688 184.49294 141.29688 187.44531 C 141.29688 190.39769 143.69068 192.79093 146.64258 192.79297 L 155.94336 192.79297 C 157.2271 192.79297 158.26758 193.83345 158.26758 195.11719 C 158.26758 196.40092 157.2271 197.44336 155.94336 197.44336 L 149.7832 197.44336 L 149.7832 200.4668 L 155.94727 200.4668 C 158.89916 200.46476 161.29102 198.06956 161.29102 195.11719 C 161.29102 192.16481 158.89916 189.77157 155.94727 189.76953 L 146.64648 189.76953 C 145.36275 189.76953 144.32031 188.72905 144.32031 187.44531 C 144.32031 186.16158 145.36275 185.12109 146.64648 185.12109 L 155.94727 185.12109 C 158.89916 185.11905 161.29102 182.72581 161.29102 179.77344 C 161.29102 176.82106 158.89916 174.42782 155.94727 174.42578 L 146.64648 174.42578 C 145.36275 174.42578 144.32031 173.3853 144.32031 172.10156 C 144.32031 170.81783 145.36275 169.77734 146.64648 169.77734 L 155.94727 169.77734 C 158.89916 169.7753 161.29102 167.38011 161.29102 164.42773 C 161.29102 161.47536 158.89916 159.08212 155.94727 159.08008 L 146.64648 159.08008 C 145.36275 159.08008 144.32031 158.0396 144.32031 156.75586 C 144.32031 155.47212 145.36275 154.43164 146.64648 154.43164 L 155.94727 154.43164 C 158.89916 154.4296 161.29102 152.03636 161.29102 149.08398 C 161.29102 146.13161 158.89916 143.73837 155.94727 143.73633 L 146.64648 143.73633 C 145.36275 143.73633 144.32031 142.69389 144.32031 141.41016 C 144.32031 140.12642 145.36275 139.08594 146.64648 139.08594 L 152.80664 139.08594 L 152.80664 136.0625 L 146.64258 136.0625 z "
       transform="scale(264.58333)"
       id="path74" />
    <path
       d="M99700,20500c0,-165.68542 134.31458,-300 300,-300v0c165.68542,0 300,134.31458 300,300v4500c0,165.68542 -134.31458,300 -300,300v0c-165.68542,0 -300,-134.31458 -300,-300z"
       fill="#303f9f"
       stroke-width="0"
       id="path76" />
    <path
       d="M69700,20500c0,-165.68542 134.31458,-300 300,-300v0c165.68542,0 300,134.31458 300,300v4500c0,165.68542 -134.31458,300 -300,300v0c-165.68542,0 -300,-134.31458 -300,-300z"
       fill="#303f9f"
       stroke-width="0"
       id="path78" />
    <path
       d="M39700,20500c0,-165.68542 134.31458,-300 300,-300v0c165.68542,0 300,134.31458 300,300v4500c0,165.68542 -134.31458,300 -300,300v0c-165.68542,0 -300,-134.31458 -300,-300z"
       fill="#303f9f"
       stroke-width="0"
       id="path80" />
    <path
       d="M41000,20400v-800v0v800z"
       fill="#303f9f"
       stroke-width="0"
       id="path82" />
    <path
       d="M100200,56400c-165.68542,0 -300,-134.31458 -300,-300v0c0,-165.68542 134.31458,-300 300,-300h9800c165.68542,0 300,134.31458 300,300v0c0,165.68542 -134.31458,300 -300,300z"
       fill="#303f9f"
       stroke-width="0"
       id="path98" />
    <path
       d="M100000,55800c165.68542,0 300,134.31458 300,300v0c0,165.68542 -134.31458,300 -300,300h-10000c-165.68542,0 -300,-134.31458 -300,-300v0c0,-165.68542 134.31458,-300 300,-300z"
       fill="#303f9f"
       stroke-width="0"
       id="path100" />
    <path
       d="M70100,56400c-165.68542,0 -300,-134.31458 -300,-300v0c0,-165.68542 134.31458,-300 300,-300h9900c165.68542,0 300,134.31458 300,300v0c0,165.68542 -134.31458,300 -300,300z"
       fill="#303f9f"
       stroke-width="0"
       id="path102" />
    <path
       d="M70200,55800c165.68542,0 300,134.31458 300,300v0c0,165.68542 -134.31458,300 -300,300h-10200c-165.68542,0 -300,-134.31458 -300,-300v0c0,-165.68542 134.31458,-300 300,-300z"
       fill="#303f9f"
       stroke-width="0"
       id="path104" />
    <path
       d="M42800,55800c165.68542,0 300,134.31458 300,300v0c0,165.68542 -134.31458,300 -300,300h-12800c-165.68542,0 -300,-134.31458 -300,-300v0c0,-165.68542 134.31458,-300 300,-300z"
       fill="#303f9f"
       stroke-width="0"
       id="path106" />
    <path
       d="M45100,55800c165.68542,0 300,134.31458 300,300v0c0,165.68542 -134.31458,300 -300,300h-1000c-165.68542,0 -300,-134.31458 -300,-300v0c0,-165.68542 134.31458,-300 300,-300z"
       fill="#303f9f"
       stroke-width="0"
       id="path108" />
    <path
       d="M44900,56400c-165.68542,0 -300,-134.31458 -300,-300v0c0,-165.68542 134.31458,-300 300,-300h5100c165.68542,0 300,134.31458 300,300v0c0,165.68542 -134.31458,300 -300,300z"
       fill="#303f9f"
       stroke-width="0"
       id="path110" />
    <path
       d="M109700,25000c0,-165.68542 134.31458,-300 300,-300v0c165.68542,0 300,134.31458 300,300v31000c0,165.68542 -134.31458,300 -300,300v0c-165.68542,0 -300,-134.31458 -300,-300z"
       fill="#303f9f"
       stroke-width="0"
       id="path112" />
    <path
       d="M89700,25000c0,-165.68542 134.31458,-300 300,-300v0c165.68542,0 300,134.31458 300,300v31000c0,165.68542 -134.31458,300 -300,300v0c-165.68542,0 -300,-134.31458 -300,-300z"
       fill="#303f9f"
       stroke-width="0"
       id="path114" />
    <path
       d="M79700,25000c0,-165.68542 134.31458,-300 300,-300v0c165.68542,0 300,134.31458 300,300v31000c0,165.68542 -134.31458,300 -300,300v0c-165.68542,0 -300,-134.31458 -300,-300z"
       fill="#303f9f"
       stroke-width="0"
       id="path116" />
    <path
       d="M59700,25000c0,-165.68542 134.31458,-300 300,-300v0c165.68542,0 300,134.31458 300,300l0,31000c0,165.68542 -134.31458,300 -300,300v0c-165.68542,0 -300,-134.31458 -300,-300z"
       fill="#303f9f"
       stroke-width="0"
       id="path118" />
    <path
       d="M49700,25000c0,-165.68542 134.31458,-300 300,-300v0c165.68542,0 300,134.31458 300,300v31000c0,165.68542 -134.31458,300 -300,300v0c-165.68542,0 -300,-134.31458 -300,-300z"
       fill="#303f9f"
       stroke-width="0"
       id="path120" />
    <path
       d="M29700,25000c0,-165.68542 134.31458,-300 300,-300v0c165.68542,0 300,134.31458 300,300v31000c0,165.68542 -134.31458,300 -300,300v0c-165.68542,0 -300,-134.31458 -300,-300z"
       fill="#303f9f"
       stroke-width="0"
       id="path122" />
    <path
       d="M40400,56400c-165.68542,0 -300,-134.31458 -300,-300v0c0,-165.68542 134.31458,-300 300,-300h4400c165.68542,0 300,134.31458 300,300v0c0,165.68542 -134.31458,300 -300,300z"
       fill="#303f9f"
       stroke-width="0"
       id="path124" />
    <path
       d="M90000,25300c-165.68542,0 -300,-134.31458 -300,-300v0c0,-165.68542 134.31458,-300 300,-300h20000c165.68542,0 300,134.31458 300,300v0c0,165.68542 -134.31458,300 -300,300z"
       fill="#303f9f"
       stroke-width="0"
       id="path156" />
    <path
       d="M60000,25300c-165.68542,0 -300,-134.31458 -300,-300v0c0,-165.68542 134.31458,-300 300,-300h20000c165.68542,0 300,134.31458 300,300v0c0,165.68542 -134.31458,300 -300,300z"
       fill="#303f9f"
       stroke-width="0"
       id="path158" />
    <path
       d="M30000,25300c-165.68542,0 -300,-134.31458 -300,-300v0c0,-165.68542 134.31458,-300 300,-300h20000c165.68542,0 300,134.31458 300,300v0c0,165.68542 -134.31458,300 -300,300z"
       fill="#303f9f"
       stroke-width="0"
       id="path160" />
  </g>
</svg>
