<?xml version="1.0" encoding="UTF-8" standalone="no"?>
<svg
   xmlns:dc="http://purl.org/dc/elements/1.1/"
   xmlns:cc="http://creativecommons.org/ns#"
   xmlns:rdf="http://www.w3.org/1999/02/22-rdf-syntax-ns#"
   xmlns:svg="http://www.w3.org/2000/svg"
   xmlns="http://www.w3.org/2000/svg"
   xmlns:sodipodi="http://sodipodi.sourceforge.net/DTD/sodipodi-0.dtd"
   xmlns:inkscape="http://www.inkscape.org/namespaces/inkscape"
   width="135mm"
   height="85mm"
   viewBox="0 0 135000 85000"
   version="1.1"
   id="svg54"
   sodipodi:docname="C_400_64_v4.svg"
   inkscape:version="0.92.2 5c3e80d, 2017-08-06">
  <metadata
     id="metadata58">
    <rdf:RDF>
      <cc:Work
         rdf:about="">
        <dc:format>image/svg+xml</dc:format>
        <dc:type
           rdf:resource="http://purl.org/dc/dcmitype/StillImage" />
        <dc:title></dc:title>
      </cc:Work>
    </rdf:RDF>
  </metadata>
  <sodipodi:namedview
     pagecolor="#ffffff"
     bordercolor="#666666"
     borderopacity="1"
     objecttolerance="10"
     gridtolerance="10"
     guidetolerance="10"
     inkscape:pageopacity="0"
     inkscape:pageshadow="2"
     inkscape:window-width="906"
     inkscape:window-height="742"
     id="namedview56"
     showgrid="false"
     inkscape:zoom="1.5"
     inkscape:cx="255.11811"
     inkscape:cy="160.62992"
     inkscape:window-x="341"
     inkscape:window-y="0"
     inkscape:window-maximized="0"
     inkscape:current-layer="g52" />
  <defs
     id="defs22">
    <radialGradient
       cx="70000"
       cy="36000"
       r="2020"
       gradientUnits="userSpaceOnUse"
       id="color-1">
      <stop
         offset="1"
         stop-color="#d32f2f"
         id="stop2" />
      <stop
         offset="1"
         stop-color="#d32f2f"
         id="stop4" />
    </radialGradient>
    <radialGradient
       cx="70000"
       cy="50000"
       r="2020"
       gradientUnits="userSpaceOnUse"
       id="color-2">
      <stop
         offset="1"
         stop-color="#d32f2f"
         id="stop7" />
      <stop
         offset="1"
         stop-color="#d32f2f"
         id="stop9" />
    </radialGradient>
    <radialGradient
       cx="50000"
       cy="64000"
       r="2020"
       gradientUnits="userSpaceOnUse"
       id="color-3">
      <stop
         offset="1"
         stop-color="#d32f2f"
         id="stop12" />
      <stop
         offset="1"
         stop-color="#d32f2f"
         id="stop14" />
    </radialGradient>
    <radialGradient
       cx="30000"
       cy="73000"
       r="2020"
       gradientUnits="userSpaceOnUse"
       id="color-4">
      <stop
         offset="1"
         stop-color="#d32f2f"
         id="stop17" />
      <stop
         offset="1"
         stop-color="#d32f2f"
         id="stop19" />
    </radialGradient>
  </defs>
  <g
     stroke-width="none"
     stroke-miterlimit="10"
     font-weight="none"
     font-size="none"
     text-anchor="none"
     style="font-family:none;mix-blend-mode:normal;fill:none;fill-rule:nonzero;stroke:none;stroke-linecap:butt;stroke-linejoin:miter;stroke-miterlimit:10;stroke-dasharray:none;stroke-dashoffset:0"
     id="g52"
     transform="matrix(1,0,0,-1,0,87833.269)">
    <path
       d="m 61000,36200 c -110.457,0 -200,-89.543 -200,-200 v 0 c 0,-110.457 89.543,-200 200,-200 h 9000 c 110.457,0 200,89.543 200,200 v 0 c 0,110.457 -89.543,200 -200,200 z"
       id="path24"
       inkscape:connector-curvature="0"
       style="fill:#d32f2f;stroke-width:0" />
    <path
       d="m 61000,50200 c -110.457,0 -200,-89.543 -200,-200 v 0 c 0,-110.457 89.543,-200 200,-200 h 9000 c 110.457,0 200,89.543 200,200 v 0 c 0,110.457 -89.543,200 -200,200 z"
       id="path26"
       inkscape:connector-curvature="0"
       style="fill:#d32f2f;stroke-width:0" />
    <path
       d="m 29800,67000 c 0,-110.457 89.543,-200 200,-200 v 0 c 110.457,0 200,89.543 200,200 v 6000 c 0,110.457 -89.543,200 -200,200 v 0 c -110.457,0 -200,-89.543 -200,-200 z"
       id="path28"
       inkscape:connector-curvature="0"
       style="fill:#d32f2f;stroke-width:0" />
    <path
       d="m 40000,66800 c 110.457,0 200,89.543 200,200 v 0 c 0,110.457 -89.543,200 -200,200 H 30000 c -110.457,0 -200,-89.543 -200,-200 v 0 c 0,-110.457 89.543,-200 200,-200 z"
       id="path30"
       inkscape:connector-curvature="0"
       style="fill:#d32f2f;stroke-width:0" />
    <path
       d="m 49800,54000 c 0,-110.457 89.543,-200 200,-200 v 0 c 110.457,0 200,89.543 200,200 v 10000 c 0,110.457 -89.543,200 -200,200 v 0 c -110.457,0 -200,-89.543 -200,-200 z"
       id="path32"
       inkscape:connector-curvature="0"
       style="fill:#d32f2f;stroke-width:0" />
    <path
       d="m 41000,54200 c -110.457,0 -200,-89.543 -200,-200 v 0 c 0,-110.457 89.543,-200 200,-200 h 9000 c 110.457,0 200,89.543 200,200 v 0 c 0,110.457 -89.543,200 -200,200 z"
       id="path34"
       inkscape:connector-curvature="0"
       style="fill:#d32f2f;stroke-width:0" />
    <path
       d="m 58800,50000 c 0,-662.742 537.258,-1200 1200,-1200 662.742,0 1200,537.258 1200,1200 0,662.742 -537.258,1200 -1200,1200 -662.742,0 -1200,-537.258 -1200,-1200 z"
       id="path44"
       inkscape:connector-curvature="0"
       style="fill:#d32f2f;stroke-width:1" />
    <path
       d="m 58800,36000 c 0,-662.742 537.258,-1200 1200,-1200 662.742,0 1200,537.258 1200,1200 0,662.742 -537.258,1200 -1200,1200 -662.742,0 -1200,-537.258 -1200,-1200 z"
       id="path46"
       inkscape:connector-curvature="0"
       style="fill:#d32f2f;stroke-width:1" />
    <path
       d="m 38800,67000 c 0,-662.742 537.258,-1200 1200,-1200 662.742,0 1200,537.258 1200,1200 0,662.742 -537.258,1200 -1200,1200 -662.742,0 -1200,-537.258 -1200,-1200 z"
       id="path48"
       inkscape:connector-curvature="0"
       style="fill:#d32f2f;stroke-width:1" />
    <path
       d="m 38800,54000 c 0,-662.742 537.258,-1200 1200,-1200 662.742,0 1200,537.258 1200,1200 0,662.742 -537.258,1200 -1200,1200 -662.742,0 -1200,-537.258 -1200,-1200 z"
       id="path50"
       inkscape:connector-curvature="0"
       style="fill:#d32f2f;stroke-width:1" />
  </g>
</svg>
