<?xml version="1.0" encoding="UTF-8" standalone="no"?>
<svg
   xmlns:dc="http://purl.org/dc/elements/1.1/"
   xmlns:cc="http://creativecommons.org/ns#"
   xmlns:rdf="http://www.w3.org/1999/02/22-rdf-syntax-ns#"
   xmlns:svg="http://www.w3.org/2000/svg"
   xmlns="http://www.w3.org/2000/svg"
   xmlns:sodipodi="http://sodipodi.sourceforge.net/DTD/sodipodi-0.dtd"
   xmlns:inkscape="http://www.inkscape.org/namespaces/inkscape"
   width="135mm"
   height="85mm"
   viewBox="0 0 135000 85000"
   version="1.1"
   id="svg97"
   sodipodi:docname="F_400_100_3.svg"
   inkscape:version="0.92.2 5c3e80d, 2017-08-06">
  <metadata
     id="metadata101">
    <rdf:RDF>
      <cc:Work
         rdf:about="">
        <dc:format>image/svg+xml</dc:format>
        <dc:type
           rdf:resource="http://purl.org/dc/dcmitype/StillImage" />
        <dc:title></dc:title>
      </cc:Work>
    </rdf:RDF>
  </metadata>
  <sodipodi:namedview
     pagecolor="#ffffff"
     bordercolor="#666666"
     borderopacity="1"
     objecttolerance="10"
     gridtolerance="10"
     guidetolerance="10"
     inkscape:pageopacity="0"
     inkscape:pageshadow="2"
     inkscape:window-width="994"
     inkscape:window-height="679"
     id="namedview99"
     showgrid="false"
     inkscape:zoom="1.5"
     inkscape:cx="255.11811"
     inkscape:cy="160.62992"
     inkscape:window-x="0"
     inkscape:window-y="0"
     inkscape:window-maximized="0"
     inkscape:current-layer="g95" />
  <defs
     id="defs37">
    <radialGradient
       cx="81000"
       cy="26000"
       r="2020"
       gradientUnits="userSpaceOnUse"
       id="color-1">
      <stop
         offset="1"
         stop-color="#303f9f"
         id="stop2" />
      <stop
         offset="1"
         stop-color="#303f9f"
         id="stop4" />
    </radialGradient>
    <radialGradient
       cx="60000"
       cy="19000"
       r="2020"
       gradientUnits="userSpaceOnUse"
       id="color-2">
      <stop
         offset="1"
         stop-color="#303f9f"
         id="stop7" />
      <stop
         offset="1"
         stop-color="#303f9f"
         id="stop9" />
    </radialGradient>
    <radialGradient
       cx="60000"
       cy="60000"
       r="2020"
       gradientUnits="userSpaceOnUse"
       id="color-3">
      <stop
         offset="1"
         stop-color="#303f9f"
         id="stop12" />
      <stop
         offset="1"
         stop-color="#303f9f"
         id="stop14" />
    </radialGradient>
    <radialGradient
       cx="40000"
       cy="34000"
       r="2020"
       gradientUnits="userSpaceOnUse"
       id="color-4">
      <stop
         offset="1"
         stop-color="#303f9f"
         id="stop17" />
      <stop
         offset="1"
         stop-color="#303f9f"
         id="stop19" />
    </radialGradient>
    <radialGradient
       cx="40000"
       cy="76000"
       r="2020"
       gradientUnits="userSpaceOnUse"
       id="color-5">
      <stop
         offset="1"
         stop-color="#303f9f"
         id="stop22" />
      <stop
         offset="1"
         stop-color="#303f9f"
         id="stop24" />
    </radialGradient>
    <radialGradient
       cx="20000"
       cy="50000"
       r="2020"
       gradientUnits="userSpaceOnUse"
       id="color-6">
      <stop
         offset="1"
         stop-color="#303f9f"
         id="stop27" />
      <stop
         offset="1"
         stop-color="#303f9f"
         id="stop29" />
    </radialGradient>
    <radialGradient
       cx="20000"
       cy="70000"
       r="2020"
       gradientUnits="userSpaceOnUse"
       id="color-7">
      <stop
         offset="1"
         stop-color="#303f9f"
         id="stop32" />
      <stop
         offset="1"
         stop-color="#303f9f"
         id="stop34" />
    </radialGradient>
  </defs>
  <g
     fill="none"
     fill-rule="nonzero"
     stroke="none"
     stroke-width="none"
     stroke-linecap="butt"
     stroke-linejoin="miter"
     stroke-miterlimit="10"
     stroke-dasharray=""
     stroke-dashoffset="0"
     font-family="none"
     font-weight="none"
     font-size="none"
     text-anchor="none"
     style="mix-blend-mode: normal"
     id="g95">
    <path
       style="fill:#303f9f;stroke:none;stroke-width:0.00377953"
       d="M 247.19922 89.896484 C 245.08179 89.896484 243.36532 91.611567 243.36328 93.728516 L 243.36328 103.0293 C 243.36328 104.31303 242.3228 105.35352 241.03906 105.35352 C 239.75533 105.35352 238.71484 104.31303 238.71484 103.0293 L 238.71484 97.625 L 237.20312 97.625 L 237.20312 103.0332 C 237.20517 105.15015 238.92164 106.86523 241.03906 106.86523 C 243.15649 106.86523 244.87296 105.15015 244.875 103.0332 L 244.875 93.732422 C 244.875 92.448686 245.91548 91.408203 247.19922 91.408203 C 248.48295 91.408203 249.52344 92.448686 249.52344 93.732422 L 249.52344 103.0332 C 249.52548 105.15015 251.2439 106.86523 253.36133 106.86523 C 255.47875 106.86523 257.19522 105.15015 257.19727 103.0332 L 257.19727 93.732422 C 257.19727 92.448686 258.23775 91.408203 259.52148 91.408203 C 260.80522 91.408203 261.8457 92.448686 261.8457 93.732422 L 261.8457 103.0332 C 261.84774 105.15015 263.56421 106.86523 265.68164 106.86523 C 267.79907 106.86523 269.51554 105.15015 269.51758 103.0332 L 269.51758 93.732422 C 269.51758 92.448686 270.55806 91.408203 271.8418 91.408203 C 273.12553 91.408203 274.16602 92.448686 274.16602 93.732422 L 274.16602 103.0332 C 274.16806 105.15015 275.88648 106.86523 278.00391 106.86523 C 280.12133 106.86523 281.8378 105.15015 281.83984 103.0332 L 281.83984 93.732422 C 281.83984 92.448686 282.88033 91.408203 284.16406 91.408203 C 285.4478 91.408203 286.48828 92.448686 286.48828 93.732422 L 286.48828 99.136719 L 288 99.136719 L 288 93.728516 C 287.99796 91.611567 286.28149 89.896484 284.16406 89.896484 C 282.04664 89.896484 280.33017 91.611567 280.32812 93.728516 L 280.32812 103.0293 C 280.32813 104.31303 279.28764 105.35352 278.00391 105.35352 C 276.72017 105.35352 275.67969 104.31303 275.67969 103.0293 L 275.67969 93.728516 C 275.67765 91.611567 273.95922 89.896484 271.8418 89.896484 C 269.72437 89.896484 268.0079 91.611567 268.00586 93.728516 L 268.00586 103.0293 C 268.00586 104.31303 266.96538 105.35352 265.68164 105.35352 C 264.3979 105.35352 263.35742 104.31303 263.35742 103.0293 L 263.35742 93.728516 C 263.35538 91.611567 261.63891 89.896484 259.52148 89.896484 C 257.40406 89.896484 255.68759 91.611567 255.68555 93.728516 L 255.68555 103.0293 C 255.68555 104.31303 254.64506 105.35352 253.36133 105.35352 C 252.07759 105.35352 251.03711 104.31303 251.03711 103.0293 L 251.03711 93.728516 C 251.03507 91.611567 249.31664 89.896484 247.19922 89.896484 z "
       transform="scale(264.58333)"
       id="path39" />
  </g>
</svg>
