<?xml version="1.0" encoding="UTF-8" standalone="no"?>
<svg
   xmlns:dc="http://purl.org/dc/elements/1.1/"
   xmlns:cc="http://creativecommons.org/ns#"
   xmlns:rdf="http://www.w3.org/1999/02/22-rdf-syntax-ns#"
   xmlns:svg="http://www.w3.org/2000/svg"
   xmlns="http://www.w3.org/2000/svg"
   xmlns:sodipodi="http://sodipodi.sourceforge.net/DTD/sodipodi-0.dtd"
   xmlns:inkscape="http://www.inkscape.org/namespaces/inkscape"
   width="135mm"
   height="85mm"
   viewBox="0 0 135000 85000"
   version="1.1"
   id="svg97"
   sodipodi:docname="F_THRU_8.svg"
   inkscape:version="0.92.2 5c3e80d, 2017-08-06">
  <metadata
     id="metadata101">
    <rdf:RDF>
      <cc:Work
         rdf:about="">
        <dc:format>image/svg+xml</dc:format>
        <dc:type
           rdf:resource="http://purl.org/dc/dcmitype/StillImage" />
        <dc:title></dc:title>
      </cc:Work>
    </rdf:RDF>
  </metadata>
  <sodipodi:namedview
     pagecolor="#ffffff"
     bordercolor="#666666"
     borderopacity="1"
     objecttolerance="10"
     gridtolerance="10"
     guidetolerance="10"
     inkscape:pageopacity="0"
     inkscape:pageshadow="2"
     inkscape:window-width="1034"
     inkscape:window-height="715"
     id="namedview99"
     showgrid="false"
     inkscape:zoom="1.5"
     inkscape:cx="255.11811"
     inkscape:cy="160.62992"
     inkscape:window-x="0"
     inkscape:window-y="0"
     inkscape:window-maximized="0"
     inkscape:current-layer="g95" />
  <defs
     id="defs37">
    <radialGradient
       cx="81000"
       cy="26000"
       r="2020"
       gradientUnits="userSpaceOnUse"
       id="color-1">
      <stop
         offset="1"
         stop-color="#303f9f"
         id="stop2" />
      <stop
         offset="1"
         stop-color="#303f9f"
         id="stop4" />
    </radialGradient>
    <radialGradient
       cx="60000"
       cy="19000"
       r="2020"
       gradientUnits="userSpaceOnUse"
       id="color-2">
      <stop
         offset="1"
         stop-color="#303f9f"
         id="stop7" />
      <stop
         offset="1"
         stop-color="#303f9f"
         id="stop9" />
    </radialGradient>
    <radialGradient
       cx="60000"
       cy="60000"
       r="2020"
       gradientUnits="userSpaceOnUse"
       id="color-3">
      <stop
         offset="1"
         stop-color="#303f9f"
         id="stop12" />
      <stop
         offset="1"
         stop-color="#303f9f"
         id="stop14" />
    </radialGradient>
    <radialGradient
       cx="40000"
       cy="34000"
       r="2020"
       gradientUnits="userSpaceOnUse"
       id="color-4">
      <stop
         offset="1"
         stop-color="#303f9f"
         id="stop17" />
      <stop
         offset="1"
         stop-color="#303f9f"
         id="stop19" />
    </radialGradient>
    <radialGradient
       cx="40000"
       cy="76000"
       r="2020"
       gradientUnits="userSpaceOnUse"
       id="color-5">
      <stop
         offset="1"
         stop-color="#303f9f"
         id="stop22" />
      <stop
         offset="1"
         stop-color="#303f9f"
         id="stop24" />
    </radialGradient>
    <radialGradient
       cx="20000"
       cy="50000"
       r="2020"
       gradientUnits="userSpaceOnUse"
       id="color-6">
      <stop
         offset="1"
         stop-color="#303f9f"
         id="stop27" />
      <stop
         offset="1"
         stop-color="#303f9f"
         id="stop29" />
    </radialGradient>
    <radialGradient
       cx="20000"
       cy="70000"
       r="2020"
       gradientUnits="userSpaceOnUse"
       id="color-7">
      <stop
         offset="1"
         stop-color="#303f9f"
         id="stop32" />
      <stop
         offset="1"
         stop-color="#303f9f"
         id="stop34" />
    </radialGradient>
  </defs>
  <g
     fill="none"
     fill-rule="nonzero"
     stroke="none"
     stroke-width="none"
     stroke-linecap="butt"
     stroke-linejoin="miter"
     stroke-miterlimit="10"
     stroke-dasharray=""
     stroke-dashoffset="0"
     font-family="none"
     font-weight="none"
     font-size="none"
     text-anchor="none"
     style="mix-blend-mode: normal"
     id="g95">
    <path
       d="M78980,26000c0,-1115.61519 904.38481,-2020 2020,-2020c1115.61519,0 2020,904.38481 2020,2020c0,1115.61519 -904.38481,2020 -2020,2020c-1115.61519,0 -2020,-904.38481 -2020,-2020z"
       fill="url(#color-1)"
       stroke="none"
       stroke-width="1"
       id="path71" />
    <path
       d="M57980,19000c0,-1115.61519 904.38481,-2020 2020,-2020c1115.61519,0 2020,904.38481 2020,2020c0,1115.61519 -904.38481,2020 -2020,2020c-1115.61519,0 -2020,-904.38481 -2020,-2020z"
       fill="url(#color-2)"
       stroke="none"
       stroke-width="1"
       id="path73" />
    <path
       d="M57980,60000c0,-1115.61519 904.38481,-2020 2020,-2020c1115.61519,0 2020,904.38481 2020,2020c0,1115.61519 -904.38481,2020 -2020,2020c-1115.61519,0 -2020,-904.38481 -2020,-2020z"
       fill="url(#color-3)"
       stroke="none"
       stroke-width="1"
       id="path75" />
    <path
       d="M37980,34000c0,-1115.61519 904.38481,-2020 2020,-2020c1115.61519,0 2020,904.38481 2020,2020c0,1115.61519 -904.38481,2020 -2020,2020c-1115.61519,0 -2020,-904.38481 -2020,-2020z"
       fill="url(#color-4)"
       stroke="none"
       stroke-width="1"
       id="path77" />
    <path
       d="M37980,76000c0,-1115.61519 904.38481,-2020 2020,-2020c1115.61519,0 2020,904.38481 2020,2020c0,1115.61519 -904.38481,2020 -2020,2020c-1115.61519,0 -2020,-904.38481 -2020,-2020z"
       fill="url(#color-5)"
       stroke="none"
       stroke-width="1"
       id="path79" />
    <path
       d="M17980,50000c0,-1115.61519 904.38481,-2020 2020,-2020c1115.61519,0 2020,904.38481 2020,2020c0,1115.61519 -904.38481,2020 -2020,2020c-1115.61519,0 -2020,-904.38481 -2020,-2020z"
       fill="url(#color-6)"
       stroke="none"
       stroke-width="1"
       id="path81" />
    <path
       d="M17980,70000c0,-1115.61519 904.38481,-2020 2020,-2020c1115.61519,0 2020,904.38481 2020,2020c0,1115.61519 -904.38481,2020 -2020,2020c-1115.61519,0 -2020,-904.38481 -2020,-2020z"
       fill="url(#color-7)"
       stroke="none"
       stroke-width="1"
       id="path83" />
  </g>
</svg>
